<svg xmlns="http://www.w3.org/2000/svg" width="80" height="96" viewBox="0 0 80 96" shape-rendering="crispEdges">
<rect x="28" y="8" width="25" height="6" fill="#100e18"/><rect x="21" y="14" width="38" height="8" fill="#100e18"/><rect x="18" y="22" width="42" height="24" fill="#100e18"/><rect x="26" y="19" width="30" height="31" fill="#c99177"/><rect x="20" y="26" width="8" height="20" fill="#100e18"/><rect x="54" y="25" width="9" height="22" fill="#100e18"/><rect x="30" y="30" width="7" height="3" fill="#9d173c"/><rect x="45" y="30" width="7" height="3" fill="#9d173c"/><rect x="37" y="39" width="11" height="3" fill="#6d283d"/><rect x="44" y="40" width="3" height="5" fill="#fff1d0"/><rect x="23" y="44" width="36" height="8" fill="#100e18"/>
<rect x="13" y="52" width="54" height="30" fill="#15121f"/><rect x="20" y="54" width="40" height="27" fill="#34202f"/><rect x="20" y="56" width="8" height="24" fill="#20111e"/><rect x="51" y="56" width="8" height="24" fill="#20111e"/><rect x="33" y="55" width="14" height="20" fill="#7d194b"/><rect x="35" y="55" width="10" height="5" fill="#c18b3c"/><rect x="30" y="77" width="20" height="6" fill="#18101b"/>
<rect x="17" y="80" width="19" height="8" fill="#24202d"/><rect x="44" y="80" width="19" height="8" fill="#24202d"/><rect x="14" y="87" width="24" height="5" fill="#090812"/><rect x="42" y="87" width="25" height="5" fill="#090812"/><rect x="10" y="55" width="9" height="21" fill="#c99177"/><rect x="63" y="55" width="9" height="21" fill="#c99177"/><rect x="67" y="73" width="6" height="8" fill="#c18b3c"/><rect x="26" y="48" width="4" height="4" fill="#9d173c"/><rect x="52" y="48" width="4" height="4" fill="#9d173c"/>
</svg>
